<svg xmlns="http://www.w3.org/2000/svg" viewBox="0 0 302.95 44"><defs><style>.cls-1{opacity:0;}</style></defs><g id="图层_2" data-name="图层 2"><g id="图层_1-2" data-name="图层 1"><path d="M194.59,35.16V2.23h9.3c3.44,0,6.16.75,8.14,2.24A7.65,7.65,0,0,1,215,11a7.73,7.73,0,0,1-3,6.59,13.44,13.44,0,0,1-8.19,2.25h-5.86v15.3ZM197.94,17h5.67a9.94,9.94,0,0,0,6-1.53A5.22,5.22,0,0,0,211.66,11a5.08,5.08,0,0,0-2.07-4.44,10.26,10.26,0,0,0-6-1.46h-5.67Z"/><path d="M226.13,35.72a8,8,0,0,1-5.45-1.81,6,6,0,0,1-2.09-4.79q.09-3.5,2.33-5a11.4,11.4,0,0,1,4.69-1.81c1.65-.23,3.49-.4,5.54-.49l2.79-.05v-.69a5.55,5.55,0,0,0-1.49-4.21,6,6,0,0,0-4.32-1.42,9.41,9.41,0,0,0-3.59.7,8.52,8.52,0,0,0-2.88,1.86L219.89,16a10.2,10.2,0,0,1,3.63-2.25,13.47,13.47,0,0,1,4.93-.86,9,9,0,0,1,6.09,2,7.31,7.31,0,0,1,2.38,5.86v9.54a26.56,26.56,0,0,0,.37,4.88h-2.84a20.53,20.53,0,0,1-.28-2.28c0-.62,0-1,0-1.25H234a9.47,9.47,0,0,1-3.37,3.11A9.65,9.65,0,0,1,226.13,35.72Zm.83-2.6a6.52,6.52,0,0,0,5.1-2.1,7.38,7.38,0,0,0,1.88-5.11V24.28H233a28.37,28.37,0,0,0-8,.95c-2.08.64-3.11,1.89-3.11,3.75a3.51,3.51,0,0,0,1.49,3.14A6.39,6.39,0,0,0,227,33.12Z"/><path d="M253.57,35.72a10.77,10.77,0,0,1-8.12-3.25,11.34,11.34,0,0,1-3.14-8.19,11.34,11.34,0,0,1,3.14-8.19,10.77,10.77,0,0,1,8.12-3.25A10.11,10.11,0,0,1,258.22,14a9.25,9.25,0,0,1,3.58,3.18h.09V0h3.17V35.16h-3.17V31.49h-.09a9.16,9.16,0,0,1-3.58,3.11A10.21,10.21,0,0,1,253.57,35.72Zm.32-2.7a8,8,0,0,0,6-2.48,8.8,8.8,0,0,0,2.35-6.26A8.8,8.8,0,0,0,259.89,18a7.91,7.91,0,0,0-6-2.51,7.66,7.66,0,0,0-6,2.49,9.07,9.07,0,0,0-2.23,6.3,8.49,8.49,0,0,0,2.4,6.44A8.07,8.07,0,0,0,253.89,33Z"/><path d="M292.13,36a11,11,0,0,1-7.49-2.67,8.65,8.65,0,0,1-3.07-6.82,9.13,9.13,0,0,1,1.74-5.6,8.57,8.57,0,0,1,4.49-3.19v-.09a7,7,0,0,1-3.58-2.82,8.09,8.09,0,0,1-1.4-4.62,8.46,8.46,0,0,1,1.26-4.61,8.56,8.56,0,0,1,3.39-3.09,10.09,10.09,0,0,1,4.66-1.09,9.44,9.44,0,0,1,6.6,2.46,8.18,8.18,0,0,1,2.7,6.33,8.09,8.09,0,0,1-1.4,4.62,7,7,0,0,1-3.58,2.82v.09a8.31,8.31,0,0,1,4.49,3.16,9.26,9.26,0,0,1,1.74,5.63,8.65,8.65,0,0,1-3.07,6.82A11,11,0,0,1,292.13,36Zm0-2.84a7,7,0,0,0,5.21-2,6.81,6.81,0,0,0,2-5,6.62,6.62,0,0,0-2-4.93,7.94,7.94,0,0,0-10.42,0,6.58,6.58,0,0,0-2,4.93,6.77,6.77,0,0,0,2,5A7,7,0,0,0,292.13,33.16Zm0-16.88a6,6,0,0,0,4.3-1.68,5.6,5.6,0,0,0,1.74-4.23A6,6,0,0,0,296.45,6a6.22,6.22,0,0,0-8.65,0,6,6,0,0,0-1.72,4.39,5.6,5.6,0,0,0,1.74,4.23A6,6,0,0,0,292.13,16.28Z"/><polygon points="18.94 2.14 24.81 2.14 24.81 35.11 18.94 35.11 18.94 21.38 5.87 21.38 5.87 35.11 0 35.11 0 2.14 5.87 2.14 5.87 15.51 18.94 15.51 18.94 2.14"/><polygon points="93.43 22.72 79.17 2.14 74.49 2.14 74.49 35.11 80.37 35.11 80.37 14.44 94.69 35.11 99.31 35.11 99.31 2.14 93.43 2.14 93.43 22.72"/><path d="M124.15,1.69A16.92,16.92,0,1,0,141.06,18.6,16.91,16.91,0,0,0,124.15,1.69Zm0,28a11,11,0,1,1,11-11A11.05,11.05,0,0,1,124.15,29.65Z"/><path d="M164.7,23.09a10.73,10.73,0,0,0-3.23-20.95H149v33h5.87V20.44l12.23,14.67h7.63Zm-9.84-5.36V8h6.54a4.86,4.86,0,0,1,0,9.72Z"/><path d="M49.65,1.69A16.92,16.92,0,1,0,66.57,18.6,16.91,16.91,0,0,0,49.65,1.69Zm0,28a11,11,0,1,1,11-11A11,11,0,0,1,49.65,29.65Z"/><rect class="cls-1" width="302.95" height="44"/></g></g></svg>