<?xml version="1.0" encoding="UTF-8"?>
<svg width="447px" height="44px" viewBox="0 0 447 44" version="1.1" xmlns="http://www.w3.org/2000/svg" xmlns:xlink="http://www.w3.org/1999/xlink">
    <title>手机传播名-海外</title>
    <g id="手机传播名-海外" stroke="none" stroke-width="1" fill="none" fill-rule="evenodd">
        <rect id="矩形" x="0" y="0" width="447" height="44"></rect>
        <g fill="#000000" fill-rule="nonzero">
            <polygon id="路径" points="191.48 32.9 191.48 0.48 196.48 0.48 207.48 27.31 207.57 27.04 218.41 0.48 223.41 0.48 223.41 32.9 220.12 32.9 220.12 4.74 220.02 4.74 208.33 32.9 206.59 32.9 194.87 4.74 194.78 4.74 194.78 32.9"></polygon>
            <path d="M236.54,33.45 C234.593611,33.5355672 232.684387,32.8979718 231.18,31.66 C229.82819,30.4949755 229.071798,28.7839141 229.12,27 C229.18,24.7133333 229.943333,23.0866667 231.41,22.12 C232.784913,21.1744229 234.352648,20.5459627 236,20.28 C237.62,20.06 239.44,19.9 241.45,19.8 L244.2,19.8 L244.2,19.11 C244.311486,17.5868458 243.782296,16.0862648 242.74,14.97 C241.554304,13.9703053 240.027571,13.4685618 238.48,13.57 C237.269619,13.5678441 236.070482,13.8022365 234.95,14.26 C233.891403,14.6757452 232.926024,15.2978029 232.11,16.09 L230.4,14 C231.428183,13.0096575 232.655368,12.2494846 234,11.77 C235.553057,11.1869485 237.201241,10.898686 238.86,10.92 C241.038206,10.8239255 243.17508,11.5362167 244.86,12.92 C246.46939,14.3919314 247.326007,16.513255 247.19,18.69 L247.19,28.07 C247.162481,29.6813809 247.286358,31.2917853 247.56,32.88 L244.76,32.88 C244.627173,32.1391208 244.537024,31.3912216 244.49,30.64 C244.49,30.03 244.44,29.64 244.44,29.4 L244.35,29.4 C243.506577,30.6916324 242.35542,31.7534457 241,32.49 C239.612461,33.1648594 238.082318,33.4942174 236.54,33.45 Z M237.36,30.88 C239.249162,30.9657716 241.079538,30.2116566 242.36,28.82 C243.58757,27.4477322 244.248735,25.6608008 244.21,23.82 L244.21,22.22 L243.3,22.22 C240.625813,22.1495931 237.955335,22.4627764 235.37,23.15 C233.33,23.7766667 232.31,25.0066667 232.31,26.84 C232.218525,28.055244 232.773114,29.2289975 233.77,29.93 C234.842524,30.6036622 236.094653,30.9350055 237.36,30.88 L237.36,30.88 Z" id="形状"></path>
            <path d="M263.23,43.8900302 C261.288147,43.8939878 259.365799,43.5027133 257.58,42.74 C255.82729,42.0257643 254.243369,40.9527857 252.93,39.59 L255.17,37.2 C256.141138,38.3870521 257.36395,39.3434414 258.75,40 C260.179628,40.7337889 261.763054,41.1176496 263.37,41.12 C266.27,41.12 268.393333,40.3433333 269.74,38.79 C271.131478,37.0742476 271.84333,34.9066582 271.74,32.7 L271.74,28.7 L271.65,28.7 C270.801841,30.0228243 269.604372,31.0853186 268.19,31.77 C266.751993,32.5124613 265.158353,32.9031602 263.54,32.91 C260.574889,33.0485995 257.682854,31.9640862 255.54,29.91 C253.460001,27.8157643 252.347402,24.9490993 252.47,22 C252.400268,19.0622095 253.526252,16.221989 255.59,14.13 C257.681565,11.975081 260.58902,10.8084647 263.59,10.92 C265.189768,10.9163921 266.768301,11.2862002 268.2,12 C269.624313,12.7024569 270.823047,13.7903248 271.66,15.14 L271.75,15.14 L271.75,11.47 L274.86,11.47 L274.86,32.72 C275.025714,35.7399553 273.940664,38.6949079 271.86,40.89 C269.86,42.89 267,43.8900302 263.23,43.8900302 Z M263.87,30.24 C266.084017,30.3179136 268.231215,29.474242 269.8,27.91 C271.359301,26.3101317 272.197369,24.1427138 272.12,21.91 C272.148924,19.7009939 271.291747,17.5724583 269.74,16 C268.21873,14.3864011 266.087278,13.489521 263.87,13.53 C261.654363,13.4375133 259.508106,14.3135366 257.99,15.93 C256.496867,17.5645752 255.700392,19.7172103 255.77,21.93 C255.697449,24.1246481 256.487159,26.2604547 257.97,27.88 C259.499177,29.4882826 261.653505,30.3500139 263.87,30.24 Z" id="形状"></path>
            <path d="M283.43,5.43 C282.851689,5.43142634 282.296959,5.20088903 281.89,4.79 C281.460739,4.38572367 281.221225,3.81959958 281.23,3.23 C281.221225,2.64040042 281.460739,2.07427633 281.89,1.67 C282.295684,1.26022136 282.848373,1.02966279 283.425,1.02966279 C284.001627,1.02966279 284.554316,1.26022136 284.96,1.67 C285.389261,2.07427633 285.628775,2.64040042 285.62,3.23 C285.639197,3.81358123 285.414555,4.37880737 285,4.79 C284.58446,5.20643474 284.018251,5.43724598 283.43,5.43 Z M281.87,32.9 L281.87,11.47 L285,11.47 L285,32.9 L281.87,32.9 Z" id="形状"></path>
            <path d="M302,33.45 C298.923218,33.57301 295.931716,32.4227105 293.73,30.27 C291.606831,28.126701 290.457132,25.2054521 290.55,22.19 C290.454362,19.1711132 291.60427,16.2457162 293.73,14.1 C295.931716,11.9472895 298.923218,10.79699 302,10.92 C303.540285,10.9373788 305.059749,11.2780658 306.46,11.92 C307.848754,12.5119936 309.056244,13.4607361 309.96,14.67 L307.54,16.41 C306.966591,15.5603792 306.185081,14.8718239 305.27,14.41 C304.276964,13.8779673 303.166557,13.6029439 302.04,13.61 C299.817691,13.5181044 297.663726,14.3891664 296.13,16 C294.596672,17.6966814 293.785842,19.9246682 293.87,22.21 C293.782968,24.4831664 294.58667,26.7005247 296.11,28.39 C297.633495,30.0046888 299.781861,30.8800842 302,30.79 C303.27759,30.8505025 304.54629,30.5489262 305.66,29.92 C306.494168,29.4174163 307.229561,28.7667465 307.83,28 L310.17,29.74 C309.132964,31.1092613 307.723429,32.1507899 306.11,32.74 C304.785908,33.1915089 303.39883,33.4311257 302,33.45 Z" id="路径"></path>
            <path d="M328.8,32.9 L328.8,25.07 L314,25.07 L314,21.86 L327.7,0.48 L332,0.48 L332,22.19 L336.76,22.19 L336.76,25.07 L332,25.07 L332,32.9 L328.8,32.9 Z M317.4,22.19 L328.8,22.19 L328.8,4.19 L328.71,4.19 L317.4,22.19 Z" id="形状"></path>
            <path d="M352.06,32.9 L352.06,0.48 L361.22,0.48 C364.606667,0.48 367.273333,1.21333333 369.22,2.68 C371.210394,4.21192214 372.308659,6.63335293 372.15,9.14 C372.290368,11.6617859 371.165465,14.0878274 369.15,15.61 C366.778193,17.2119345 363.947908,17.9950033 361.09,17.84 L355.32,17.84 L355.32,32.9 L352.06,32.9 Z M355.36,15 L360.94,15 C363.014034,15.1366878 365.077543,14.6076728 366.83,13.49 C368.187474,12.4521013 368.937682,10.8053955 368.83,9.1 C368.956511,7.39399639 368.202051,5.7417284 366.83,4.72 C365.059496,3.65048245 363.004251,3.14801184 360.94,3.28 L355.36,3.28 L355.36,15 Z" id="形状"></path>
            <path d="M377.29,32.9 L377.29,16.19 C377.29,14.6 377.29,13.45 377.2,12.73 C377.11,12.01 377.11,11.59 377.11,11.47 L380.11,11.47 C380.23,13 380.3,14.22 380.3,15.13 L380.39,15.13 C381.011454,13.8884476 381.971852,12.8483048 383.16,12.13 C384.384934,11.3520924 385.809001,10.9457124 387.26,10.96 C387.953735,10.9470082 388.646213,11.0243237 389.32,11.19 L388.9,14.12 C388.595406,14.0348301 388.284376,13.9746307 387.97,13.94 C387.55244,13.8822831 387.131524,13.8522177 386.71,13.85 C384.989162,13.8097136 383.341079,14.5438262 382.22,15.85 C381.026667,17.1833333 380.43,19.2066667 380.43,21.92 L380.43,32.92 L377.29,32.9 Z" id="路径"></path>
            <path d="M402.47,33.45 C399.421498,33.5468208 396.467258,32.3860975 394.3,30.24 C392.166876,28.1323989 390.998198,25.2378401 391.07,22.24 C390.981466,19.2215042 392.151444,16.3019945 394.3,14.18 C398.925894,9.90205212 406.064106,9.90205212 410.69,14.18 C412.838556,16.3019945 414.008534,19.2215042 413.92,22.24 C413.991802,25.2378401 412.823124,28.1323989 410.69,30.24 C408.507368,32.393864 405.534644,33.5547454 402.47,33.45 L402.47,33.45 Z M402.47,30.79 C404.696418,30.8699439 406.847077,29.9753574 408.36,28.34 C409.885988,26.6628425 410.696891,24.4561828 410.62,22.19 C410.695743,19.9120049 409.885685,17.6933057 408.36,16 C406.849146,14.3594959 404.699064,13.4578489 402.47,13.53 C400.249036,13.4545332 398.106828,14.3574777 396.61,16 C395.098773,17.7006901 394.297091,19.9160522 394.37,22.19 C394.293109,24.4561828 395.104012,26.6628425 396.63,28.34 C398.126684,29.9686002 400.259337,30.8632922 402.47,30.79 Z" id="形状"></path>
            <polygon id="路径" points="18.64 0.45 24.43 0.45 24.43 32.9 18.64 32.9 18.64 19.38 5.78 19.38 5.78 32.9 0 32.9 0 0.45 5.78 0.45 5.78 13.6 18.64 13.6"></polygon>
            <polygon id="路径" points="91.98 20.7 77.94 0.45 73.33 0.45 73.33 32.9 79.11 32.9 79.11 12.55 93.22 32.9 97.76 32.9 97.76 0.45 91.98 0.45"></polygon>
            <path d="M122.21,0 C113.014459,0 105.56,7.45445892 105.56,16.65 C105.56,25.8455411 113.014459,33.3 122.21,33.3 C131.405541,33.3 138.86,25.8455411 138.86,16.65 C138.86,12.2341454 137.105809,7.99915279 133.983328,4.87667209 C130.860847,1.75419139 126.625855,0 122.21,0 Z M122.21,27.52 C116.206665,27.52 111.34,22.6533352 111.34,16.65 C111.34,10.6466648 116.206665,5.78 122.21,5.78 C128.213335,5.78 133.08,10.6466648 133.08,16.65 C133.08,22.6533352 128.213335,27.52 122.21,27.52 Z" id="形状"></path>
            <path d="M162.14,21.07 C167.085944,19.4917653 170.151034,14.5525016 169.369463,9.42002355 C168.587893,4.28754552 164.191531,0.484506729 159,0.45 L146.67,0.45 L146.67,32.9 L152.45,32.9 L152.45,18.46 L164.45,32.9 L172,32.9 L162.14,21.07 Z M152.45,15.79 L152.45,6.23 L158.89,6.23 C161.529921,6.23 163.67,8.37007892 163.67,11.01 C163.67,13.6499211 161.529921,15.79 158.89,15.79 L152.45,15.79 Z" id="形状"></path>
            <path d="M48.88,-3.01097038e-06 C39.6844589,-3.01097038e-06 32.23,7.45445892 32.23,16.65 C32.23,25.8455411 39.6844589,33.3 48.88,33.3 C58.0755411,33.3 65.530003,25.8455411 65.530003,16.65 C65.532655,12.233332 63.7793163,7.99679658 60.6562598,4.87374015 C57.5332034,1.75068373 53.296668,-0.00265504608 48.88,-3.01097038e-06 Z M48.88,27.52 C42.8766648,27.52 38.01,22.6533352 38.01,16.65 C38.01,10.6466648 42.8766648,5.78 48.88,5.78 C54.8833352,5.78 59.75,10.6466648 59.75,16.65 C59.75,22.6533352 54.8833352,27.52 48.88,27.52 Z" id="形状"></path>
            <path d="M428.19,13.91 C427.547303,13.9264414 426.914092,13.7524825 426.37,13.41 C425.865257,13.0804854 425.471482,12.6065624 425.24,12.05 L426.39,11.59 C426.665055,12.3455697 427.385946,12.8461882 428.19,12.84 C428.707476,12.851262 429.206702,12.6486773 429.57,12.28 C429.941765,11.8989824 430.140628,11.3819382 430.12,10.85 C430.161696,10.2772686 429.932136,9.7181777 429.5,9.34 C429.075053,8.99864593 428.545047,8.81491059 428,8.82 C427.62711,8.83235861 427.257381,8.89285976 426.9,9 C426.553736,9.08508392 426.218254,9.20921244 425.9,9.37 L426,4.42 L431,4.42 L431,5.55 L427.19,5.55 L427.13,8 C427.513985,7.87552057 427.91652,7.81801556 428.32,7.83 C429.139441,7.79417766 429.940201,8.08144575 430.55,8.63 C431.134191,9.17255338 431.452016,9.94337085 431.42,10.74 C431.43221,11.3242489 431.287149,11.9010388 431,12.41 C430.722789,12.8821983 430.321631,13.2695231 429.84,13.53 C429.329815,13.7909687 428.76294,13.9215218 428.19,13.91 Z" id="路径"></path>
            <path d="M438,13.91 C436.679646,13.9548207 435.397941,13.4601911 434.45,12.54 C433.503892,11.6109638 432.99526,10.3248518 433.05,9 C433.001029,7.69377487 433.510089,6.42839907 434.45,5.52 C435.402001,4.61039263 436.684678,4.12984063 438,4.19 C438.680636,4.17331362 439.358549,4.28177967 440,4.51 C440.545875,4.69789436 441.046542,4.99761374 441.47,5.39 L440.57,6.33 C440.270064,6.00785996 439.900734,5.75822041 439.49,5.6 C439.019018,5.40136525 438.510961,5.30589135 438,5.32 C437.034342,5.28614175 436.102359,5.67720916 435.45,6.39 C434.787332,7.10727469 434.428838,8.05369859 434.45,9.03 C434.421456,10.0135218 434.780606,10.9688611 435.45,11.69 C436.109843,12.389853 437.038677,12.7723139 438,12.74 C438.444342,12.7541777 438.888518,12.7070681 439.32,12.6 C439.606311,12.5245986 439.884361,12.4207483 440.15,12.29 L440.15,9.71 L438.1,9.71 L438.1,8.62 L441.43,8.62 L441.43,13.1 C440.8574,13.4202721 440.235621,13.6433017 439.59,13.76 C439.064813,13.8520571 438.533138,13.9022152 438,13.91 L438,13.91 Z" id="路径"></path>
            <path d="M440.36,17.68 L426.17,17.68 C422.954081,17.68 420.345516,15.0759142 420.34,11.86 L420.34,6.27 C420.345516,3.05408584 422.954081,0.45 426.17,0.45 L440.36,0.45 C443.572014,0.45550475 446.174495,3.05798566 446.18,6.27 L446.18,11.86 C446.174495,15.0720143 443.572014,17.6744953 440.36,17.68 Z M426.17,1.32 C423.447491,1.34709165 421.247092,3.54749117 421.22,6.27 L421.22,11.86 C421.247092,14.5825088 423.447491,16.7829084 426.17,16.81 L440.36,16.81 C443.082509,16.7829084 445.282908,14.5825088 445.31,11.86 L445.31,6.27 C445.282908,3.54749117 443.082509,1.34709165 440.36,1.32 L426.17,1.32 Z" id="形状"></path>
        </g>
    </g>
</svg>