<svg xmlns="http://www.w3.org/2000/svg" viewBox="0 0 423.41 44"><defs><style>.cls-1{opacity:0;}</style></defs><g id="图层_2" data-name="图层 2"><g id="图层_1-2" data-name="图层 1"><rect class="cls-1" width="423.41" height="44"/><path d="M200.91,35.16,191.19,2.23h3.53l8.14,28.33H203l8.24-28.33h4l8.23,28.33h.09l8.05-28.33h3.53l-9.72,32.93h-3.9L213.19,6.88h-.1l-8.28,28.28Z"/><path d="M244.68,35.72a8,8,0,0,1-5.45-1.81,6,6,0,0,1-2.09-4.79q.09-3.5,2.33-5a11.4,11.4,0,0,1,4.69-1.81c1.65-.23,3.49-.4,5.54-.49l2.79-.05v-.69A5.55,5.55,0,0,0,251,16.91a6,6,0,0,0-4.32-1.42,9.37,9.37,0,0,0-3.59.7,8.52,8.52,0,0,0-2.88,1.86L238.44,16a10.2,10.2,0,0,1,3.63-2.25,13.47,13.47,0,0,1,4.93-.86,9,9,0,0,1,6.09,2,7.31,7.31,0,0,1,2.38,5.87v9.53a26.56,26.56,0,0,0,.37,4.88H253a20.53,20.53,0,0,1-.28-2.28c0-.62,0-1,0-1.25h-.1a9.6,9.6,0,0,1-3.37,3.12A9.77,9.77,0,0,1,244.68,35.72Zm.83-2.6a6.52,6.52,0,0,0,5.1-2.1,7.38,7.38,0,0,0,1.88-5.11V24.28h-.93a28.37,28.37,0,0,0-8.05.95c-2.08.64-3.11,1.89-3.11,3.75a3.52,3.52,0,0,0,1.48,3.14A6.45,6.45,0,0,0,245.51,33.12Z"/><path d="M268.54,35.44a6.18,6.18,0,0,1-3.91-1.3Q263,32.84,263,29.63V16.05h-4.51V13.4H263V7.26h3.17V13.4h6.14v2.65h-6.14V28.74a4.55,4.55,0,0,0,.83,3.14,3.21,3.21,0,0,0,2.42.87,6.2,6.2,0,0,0,2.75-.7l.14,2.74a9,9,0,0,1-2.51.61Z"/><path d="M286.07,35.72a11.36,11.36,0,0,1-8.39-3.23,11.11,11.11,0,0,1-3.24-8.21,11.11,11.11,0,0,1,3.24-8.21,11.32,11.32,0,0,1,8.39-3.23,11.17,11.17,0,0,1,4.54,1,8.74,8.74,0,0,1,3.55,2.8l-2.46,1.76a6.2,6.2,0,0,0-2.3-2.07,6.84,6.84,0,0,0-3.28-.81,7.84,7.84,0,0,0-6,2.49,8.94,8.94,0,0,0-2.3,6.3,8.9,8.9,0,0,0,2.28,6.28,7.8,7.8,0,0,0,6,2.46,6.87,6.87,0,0,0,3.72-.88A8.1,8.1,0,0,0,292,30.19L294.35,32A9,9,0,0,1,290.23,35,13.44,13.44,0,0,1,286.07,35.72Z"/><path d="M298.21,35.16V0h3.16V17h.1a6.4,6.4,0,0,1,2.9-3,9,9,0,0,1,4.4-1.14,7.72,7.72,0,0,1,6.16,2.42,9.59,9.59,0,0,1,2.12,6.55V35.16h-3.16v-12a10.18,10.18,0,0,0-1.33-5.66q-1.32-2-4.58-2a5.68,5.68,0,0,0-4.82,2.42A10,10,0,0,0,301.37,24V35.16Z"/><path d="M350.12,36a16.56,16.56,0,0,1-12.33-4.91A16.93,16.93,0,0,1,333,18.7a16.84,16.84,0,0,1,4.88-12.4,16.62,16.62,0,0,1,12.28-4.9,17.71,17.71,0,0,1,7.05,1.25A16.15,16.15,0,0,1,362,5.81L359.7,8.14a10.87,10.87,0,0,0-4.46-3,15.66,15.66,0,0,0-5.07-.83,12.73,12.73,0,0,0-9.89,4.16,14.59,14.59,0,0,0-3.79,10.21,14.5,14.5,0,0,0,3.79,10.18A12.75,12.75,0,0,0,350.17,33a20.8,20.8,0,0,0,5-.58,12.24,12.24,0,0,0,3.84-1.56v-10h-7.68V18h11V32.79a20.33,20.33,0,0,1-6.54,2.61A31.3,31.3,0,0,1,350.12,36Z"/><path d="M378.12,36a14.14,14.14,0,0,1-5.88-1.25,11.07,11.07,0,0,1-4.49-3.63L370.63,29a8.89,8.89,0,0,0,3.12,3,8.59,8.59,0,0,0,4.42,1.14,7.94,7.94,0,0,0,5.09-1.75,5.6,5.6,0,0,0,2.21-4.63,5.38,5.38,0,0,0-1.14-3.58,7.08,7.08,0,0,0-2.82-2c-1.11-.45-2.45-.92-4-1.42a31.83,31.83,0,0,1-4.3-1.7,8.52,8.52,0,0,1-3.3-2.79,8,8,0,0,1-1.33-4.76,8.15,8.15,0,0,1,1.56-5.08,9.31,9.31,0,0,1,4-3,13.1,13.1,0,0,1,5-1,13.34,13.34,0,0,1,5.58,1.13,9.41,9.41,0,0,1,3.72,2.86l-2.65,2.15A7.6,7.6,0,0,0,383,5.12a8.64,8.64,0,0,0-4-.89,7.25,7.25,0,0,0-5,1.79,5.71,5.71,0,0,0-2,4.4,4.94,4.94,0,0,0,1,3.28,6.45,6.45,0,0,0,2.53,1.86c1,.42,2.4.93,4.19,1.53s3.21,1.16,4.3,1.65a9.4,9.4,0,0,1,2.93,2.14,6.22,6.22,0,0,1,1.63,2.93,13.8,13.8,0,0,1,.32,2.7,8.43,8.43,0,0,1-3.14,7A11.79,11.79,0,0,1,378.12,36Z"/><path d="M412.49,36a11.42,11.42,0,0,1-6.3-1.74,10.88,10.88,0,0,1-4.12-5l3.17-1.17A7.31,7.31,0,0,0,408,31.77a7.65,7.65,0,0,0,4.46,1.35,7.27,7.27,0,0,0,5.14-2,6.62,6.62,0,0,0,2.12-5.11,5.63,5.63,0,0,0-2.47-5.1,10.92,10.92,0,0,0-6.09-1.6h-1.44V16.46h1.44A9.57,9.57,0,0,0,416.75,15a5.18,5.18,0,0,0,2.11-4.58A5.74,5.74,0,0,0,417,6a6.56,6.56,0,0,0-4.61-1.75,6.92,6.92,0,0,0-3.67,1,7.17,7.17,0,0,0-2.61,2.86L403.24,6.6a9.92,9.92,0,0,1,3.86-3.9,11.08,11.08,0,0,1,5.44-1.3,10.06,10.06,0,0,1,6.88,2.39,8.13,8.13,0,0,1,2.75,6.44,7.49,7.49,0,0,1-1.61,4.84,7.89,7.89,0,0,1-4.11,2.7v.09a8.28,8.28,0,0,1,4.79,2.79,8.05,8.05,0,0,1,1.86,5.4,9.4,9.4,0,0,1-5.31,8.74A11.63,11.63,0,0,1,412.49,36Z"/><polygon points="19.14 2.2 25.01 2.2 25.01 35.16 19.14 35.16 19.14 21.43 6.07 21.43 6.07 35.16 0.2 35.16 0.2 2.2 6.07 2.2 6.07 15.56 19.14 15.56 19.14 2.2"/><polygon points="93.63 22.77 79.38 2.2 74.69 2.2 74.69 35.16 80.57 35.16 80.57 14.49 94.89 35.16 99.51 35.16 99.51 2.2 93.63 2.2 93.63 22.77"/><path d="M124.35,1.74a16.92,16.92,0,1,0,16.91,16.92A16.93,16.93,0,0,0,124.35,1.74Zm0,28a11,11,0,1,1,11-11A11,11,0,0,1,124.35,29.7Z"/><path d="M164.9,23.14A10.72,10.72,0,0,0,161.67,2.2H149.19v33h5.87V20.49L167.3,35.16h7.63Zm-9.84-5.36V8.07h6.54a4.86,4.86,0,0,1,0,9.71Z"/><path d="M49.85,1.74A16.92,16.92,0,1,0,66.77,18.66,16.92,16.92,0,0,0,49.85,1.74Zm0,28a11,11,0,1,1,11-11A11,11,0,0,1,49.85,29.7Z"/></g></g></svg>