<?xml version="1.0" encoding="UTF-8"?>
<svg width="281px" height="44px" viewBox="0 0 281 44" version="1.1" xmlns="http://www.w3.org/2000/svg" xmlns:xlink="http://www.w3.org/1999/xlink">
    <title>画板备份 3</title>
    <g id="画板备份-3" stroke="none" stroke-width="1" fill="none" fill-rule="evenodd">
        <rect id="矩形" fill-opacity="0" fill="#FFFFFF" x="0" y="0" width="281" height="44"></rect>
        <g id="HONOR-70-5G-(1)">
            <rect id="矩形" x="0" y="0.00258992806" width="280.300144" height="35.9559712"></rect>
            <polygon id="路径" fill="#040000" fill-rule="nonzero" points="200.273957 34.738705 214.295827 3.95741007 197.694388 3.95741007 197.694388 0.862446043 217.78705 0.862446043 217.78705 4.01697842 204.151079 34.738705"></polygon>
            <path d="M234.34964,35.5985612 C230.74784,35.7793884 227.393014,33.7685386 225.854676,30.5067626 C224.006257,26.5507349 223.118835,22.2139011 223.264748,17.8497842 C223.116677,13.4629632 224.003942,9.10294123 225.854676,5.1228777 C227.255367,2.53311777 229.75015,0.713931342 232.644133,0.172032206 C235.538116,-0.36986693 238.522086,0.423421231 240.764892,2.33093525 C242.531292,4.15881498 243.769147,6.43134859 244.346763,8.90676259 C245.123898,11.8307422 245.508853,14.8450621 245.491511,17.8705036 C245.63632,22.2386926 244.735024,26.5782322 242.862734,30.527482 C241.315644,33.7875104 237.953029,35.7905525 234.34964,35.5985612 L234.34964,35.5985612 Z M234.34964,32.6330935 C237.058705,32.6330935 239.006331,31.1723741 240.192518,28.2509353 C241.443726,24.9294074 242.044278,21.398193 241.961439,17.8497842 C242.071622,14.2741863 241.501212,10.710227 240.280576,7.3476259 C239.063309,4.39510791 237.086331,2.9352518 234.34964,2.96805755 C231.609496,2.96805755 229.651511,4.44172662 228.493813,7.37093525 C227.253263,10.7397759 226.660134,14.3126071 226.745612,17.9015827 C226.659987,21.458499 227.253314,24.9991243 228.493813,28.3338129 C229.69036,31.1801439 231.648345,32.6330935 234.34964,32.6330935 L234.34964,32.6330935 Z" id="形状" fill="#040000" fill-rule="nonzero"></path>
            <polygon id="路径-2" fill="#040000" fill-rule="nonzero" points="19.4788489 0.821007194 25.5211511 0.821007194 25.5211511 34.738705 19.4788489 34.738705 19.4788489 20.6080576 6.04230216 20.6080576 6.04230216 34.738705 0 34.738705 0 0.821007194 6.04230216 0.821007194 6.04230216 14.5657554 19.4788489 14.5657554"></polygon>
            <polygon id="路径-3" fill="#040000" fill-rule="nonzero" points="96.1122302 21.9936691 81.4480576 0.821007194 76.6333813 0.821007194 76.6333813 34.738705 82.6756835 34.738705 82.6756835 13.4702158 97.4071942 34.738705 102.154532 34.738705 102.154532 0.821007194 96.1122302 0.821007194"></polygon>
            <path d="M127.704173,0.357410072 C119.401441,0.356269679 112.253632,6.21916952 110.630671,14.361734 C109.00771,22.5042984 113.361425,30.6596608 121.030103,33.8419125 C128.698782,37.0241643 137.547486,34.3473757 142.166422,27.4480433 C146.785358,20.5487109 145.888628,11.3475892 140.02446,5.46992806 C136.759799,2.1969459 132.326989,0.357410072 127.704173,0.357410072 Z M127.704173,29.1056115 C123.104677,29.1003115 118.962097,26.3225203 117.210948,22.0694191 C115.459799,17.8163179 116.445568,12.9270081 119.707917,9.68471425 C122.970266,6.44242037 127.865562,5.48681995 132.107784,7.2641621 C136.350006,9.04150426 139.102199,13.2011342 139.079281,17.8005755 C139.053445,24.0620675 133.965711,29.1219997 127.704173,29.1133923 L127.704173,29.1056115 Z" id="形状-2" fill="#040000" fill-rule="nonzero"></path>
            <path d="M169.422734,22.3795683 C174.606676,20.7372127 177.821579,15.5633558 176.998156,10.1881754 C176.174732,4.81299502 171.558439,0.838798831 166.120576,0.823597122 L153.266763,0.823597122 L153.266763,34.7516547 L159.306475,34.7516547 L159.306475,19.6497842 L171.896115,34.738705 L179.741007,34.738705 L169.422734,22.3795683 Z M159.298705,16.811223 L159.298705,6.86330935 L166.032518,6.86330935 C168.790286,6.86330935 171.025899,9.09892231 171.025899,11.8566906 C171.025899,14.614459 168.790286,16.8500719 166.032518,16.8500719 L159.298705,16.811223 Z" id="形状-3" fill="#040000" fill-rule="nonzero"></path>
            <path d="M51.0733813,0.35740935 C42.7704062,0.355034007 35.6215865,6.21720592 33.997669,14.3598279 C32.3737515,22.5024499 36.7268582,30.6584995 44.3955247,33.8414154 C52.0641913,37.0243312 60.9133514,34.347944 65.5326799,27.4485814 C70.1520084,20.5492187 69.2554181,11.3477618 63.3910791,5.46992806 C60.1270513,2.19758131 55.6952998,0.358162153 51.0733813,0.35740935 Z M51.0733813,29.1056118 C46.4731711,29.106617 42.3262933,26.3336611 40.5697748,22.0820053 C38.8132562,17.8303494 39.7937558,12.9390817 43.0532773,9.69293713 C46.3127988,6.4467926 51.2080574,5.48641611 55.4524538,7.26040424 C59.6968502,9.03439236 62.4527291,13.1926386 62.4329131,17.7928058 C62.4057161,24.0476369 57.328271,29.1042444 51.0733813,29.1056118 L51.0733813,29.1056118 Z" id="形状-4" fill="#040000" fill-rule="nonzero"></path>
            <path d="M261.303022,14.9231655 C260.632753,14.9434065 259.971708,14.7630395 259.404604,14.4051799 C258.873365,14.0638366 258.458704,13.5687725 258.215827,12.9858993 L259.412374,12.5093525 C259.658977,13.1485751 260.211312,13.6203298 260.881237,13.7639225 C261.551162,13.9075152 262.248325,13.7035797 262.735252,13.2215827 C263.131608,12.8290259 263.343313,12.2870611 263.317986,11.7297842 C263.360302,11.132189 263.118441,10.5496103 262.665324,10.1576978 C262.208904,9.78547429 261.632586,9.5921407 261.044029,9.61381295 C260.669804,9.61634638 260.297384,9.66594436 259.93554,9.76143885 C259.576504,9.84973595 259.228874,9.97922797 258.899568,10.1473381 L259.065324,5.01410072 L264.276259,5.01410072 L264.276259,6.19251799 L260.321439,6.19251799 L260.243741,8.73323741 C260.646582,8.60662784 261.067309,8.54627404 261.489496,8.55453237 C262.346887,8.5179645 263.184219,8.82033437 263.820432,9.39625899 C264.429035,9.96413576 264.760792,10.7684807 264.729496,11.6002878 C264.742483,12.2088774 264.592242,12.8098397 264.294388,13.3407194 C263.993001,13.8425498 263.554493,14.2478106 263.030504,14.508777 C262.500036,14.7886184 261.907905,14.9310858 261.308201,14.9231655 L261.303022,14.9231655 Z" id="路径-4" fill="#040000" fill-rule="nonzero"></path>
            <path d="M271.538417,14.9231655 C270.160226,14.9704314 268.821852,14.456391 267.82964,13.498705 C266.86046,12.5330798 266.334468,11.2091913 266.376691,9.84172662 C266.331925,8.48092659 266.863249,7.16437232 267.84,6.21582734 C268.825191,5.26032442 270.156364,4.74617759 271.528058,4.79136691 C272.221736,4.78621715 272.911158,4.90009877 273.566331,5.12805755 C274.133988,5.32677229 274.654915,5.63968065 275.096978,6.04748201 L274.159424,7.03683453 C273.846766,6.69561497 273.460636,6.42992905 273.030216,6.25985612 C272.557798,6.06084814 272.051021,5.95614942 271.538417,5.95165468 C270.531172,5.91947056 269.559944,6.32801023 268.878561,7.0705036 C268.207519,7.82918683 267.853368,8.81654541 267.889209,9.82877698 C267.860422,10.8545124 268.231968,11.8511856 268.92518,12.6077698 C269.620103,13.3465191 270.599928,13.7495879 271.613525,13.7136691 C272.080388,13.7233288 272.546431,13.6701912 272.999137,13.5556835 C273.300755,13.4806105 273.592743,13.3711149 273.869353,13.2293525 L273.869353,10.5435971 L271.722302,10.5435971 L271.722302,9.39625899 L275.203165,9.39625899 L275.203165,14.0814388 C274.606549,14.4160055 273.959112,14.6504829 273.286619,14.7755396 C272.708723,14.8710426 272.124144,14.920407 271.538417,14.9231655 L271.538417,14.9231655 Z" id="路径-5" fill="#040000" fill-rule="nonzero"></path>
            <path d="M274.014388,18.8779856 L259.181871,18.8779856 C255.839643,18.8453449 253.146257,16.1288595 253.142158,12.7864748 L253.142158,6.9228777 C253.157702,3.5862892 255.855673,0.883698382 259.19223,0.862446043 L274.014388,0.862446043 C277.36308,0.866682512 280.079874,3.57421966 280.095567,6.9228777 L280.095567,12.7579856 C280.105569,16.1269536 277.383352,18.8665609 274.014388,18.8779856 L274.014388,18.8779856 Z M259.181871,1.78446043 C256.34329,1.79431582 254.041416,4.08694931 254.020144,6.92546763 L254.020144,12.7579856 C254.020144,15.6187412 256.339244,17.9378417 259.2,17.9378417 L274.014388,17.9378417 C276.875144,17.9378417 279.194245,15.6187412 279.194245,12.7579856 L279.194245,6.9228777 C279.194245,4.06212216 276.875144,1.74302158 274.014388,1.74302158 L259.181871,1.78446043 Z" id="形状-5" fill="#040000" fill-rule="nonzero"></path>
        </g>
    </g>
</svg>