<?xml version="1.0" encoding="UTF-8"?>
<svg width="467px" height="44px" viewBox="0 0 467 44" version="1.1" xmlns="http://www.w3.org/2000/svg" xmlns:xlink="http://www.w3.org/1999/xlink">
    <title>耳机传播名-英文</title>
    <g id="耳机传播名-英文" stroke="none" stroke-width="1" fill="none" fill-rule="evenodd">
        <rect id="矩形" x="0" y="0" width="467" height="44"></rect>
        <g fill="#000000" fill-rule="nonzero">
            <polygon id="路径" points="192.116571 34.7348571 192.116571 2.20114286 212.276571 2.20114286 212.276571 5.14285714 195.428571 5.14285714 195.428571 16.3542857 211.186286 16.3542857 211.186286 19.2445714 195.428571 19.2445714 195.428571 31.7931429 212.842286 31.7931429 212.842286 34.7348571"></polygon>
            <path d="M223.806857,35.28 C221.857663,35.3660513 219.945439,34.7286433 218.437714,33.4902857 C217.067737,32.3083533 216.310569,30.5668674 216.380571,28.7588571 C216.442286,26.4685714 217.206857,24.8365714 218.674286,23.8628571 C220.066638,22.9256639 221.652125,22.3139684 223.313143,22.0731429 C224.938286,21.8468571 226.758857,21.6822857 228.785143,21.5897143 L231.541714,21.5897143 L231.541714,20.9005714 C231.643981,19.3844026 231.111157,17.8939869 230.070857,16.7862857 C228.887254,15.7760285 227.354729,15.2701106 225.802286,15.3771429 C224.589496,15.376987 223.388082,15.6109833 222.264,16.0662857 C221.199787,16.4814735 220.230616,17.1077608 219.414857,17.9074286 L217.666286,15.8502857 C218.689612,14.8633874 219.909186,14.1029063 221.245714,13.6182857 C222.804864,13.0386136 224.457871,12.7526504 226.121143,12.7748571 C228.311934,12.6949319 230.454959,13.4275901 232.138286,14.832 C233.734365,16.2689777 234.605641,18.3434425 234.514286,20.4891429 L234.514286,29.9108571 C234.491889,31.5263242 234.612358,33.1406084 234.874286,34.7348571 L232.076571,34.7348571 C231.940441,33.990014 231.847713,33.2378888 231.798857,32.4822857 C231.798857,31.8651429 231.798857,31.4537143 231.798857,31.2377143 L231.706286,31.2377143 C230.865607,32.5242859 229.721057,33.5840546 228.373714,34.3234286 C226.953307,35.0131421 225.384657,35.3417107 223.806857,35.28 Z M224.64,32.7085714 C226.537977,32.7985823 228.378801,32.0456887 229.669714,30.6514286 C230.914301,29.2686323 231.580696,27.4608995 231.531429,25.6011429 L231.531429,23.976 L230.616,23.976 C227.933918,23.9057056 225.255804,24.2244463 222.665143,24.9222857 C220.608,25.5497143 219.579429,26.784 219.579429,28.6148571 C219.491099,29.8308684 220.050031,31.0034523 221.050286,31.7005714 C222.116528,32.3937596 223.36877,32.7453921 224.64,32.7085714 L224.64,32.7085714 Z" id="形状"></path>
            <path d="M241.364571,34.7348571 L241.364571,17.9588571 C241.364571,16.3748571 241.364571,15.2125714 241.272,14.4925714 C241.179429,13.7725714 241.179429,13.3508571 241.179429,13.2274286 L244.162286,13.2274286 C244.285714,14.76 244.347429,15.984 244.347429,16.9097143 L244.44,16.9097143 C245.046219,15.6331462 246.011264,14.5608744 247.217143,13.824 C248.44731,13.045702 249.875787,12.6385861 251.331429,12.6514286 C252.024115,12.6359584 252.71581,12.7120449 253.388571,12.8777143 L252.977143,15.8194286 C252.667144,15.7326283 252.35071,15.6707173 252.030857,15.6342857 C251.611787,15.5742445 251.189061,15.5433133 250.765714,15.5417143 C249.030498,15.512384 247.37487,16.2683787 246.260571,17.5988571 C245.067429,18.9565714 244.470857,20.9931429 244.470857,23.688 L244.470857,34.7348571 L241.364571,34.7348571 Z" id="路径"></path>
            <path d="M268.189714,35.28 C266.592207,35.2773795 265.017542,34.9004462 263.592,34.1794286 C262.164652,33.4755259 260.945211,32.4120594 260.053714,31.0937143 L259.961143,31.0937143 L259.961143,34.7245714 L256.875429,34.7245714 L256.875429,0 L259.961143,0 L259.961143,16.9508571 L260.053714,16.9508571 C260.937401,15.610166 262.157471,14.5248713 263.592,13.8034286 C265.012479,13.066392 266.589407,12.6818613 268.189714,12.6822857 C271.193651,12.5740117 274.103597,13.7394844 276.202286,15.8914286 C278.272312,18.0641285 279.383941,20.9765952 279.288,23.976 C279.387434,26.9759903 278.275307,29.8897628 276.202286,32.0605714 C274.10759,34.2195796 271.195888,35.3894932 268.189714,35.28 Z M267.870857,32.616 C270.108416,32.7159975 272.276179,31.8240532 273.795429,30.1782857 C275.291147,28.4781991 276.078826,26.2697542 275.996571,24.0068571 C276.06638,21.7458984 275.280284,19.5418905 273.795429,17.8354286 C272.281627,16.17969 270.112182,15.2795207 267.870857,15.3771429 C265.629035,15.3162882 263.468534,16.2186813 261.936,17.856 C260.379615,19.528036 259.541276,21.7439106 259.601143,24.0274286 C259.527913,26.3093738 260.359798,28.5277347 261.915429,30.1988571 C263.463736,31.8189015 265.631447,32.6987151 267.870857,32.616 Z" id="形状"></path>
            <path d="M292.854857,35.28 C290.576448,35.4421629 288.345421,34.5739121 286.776,32.9142857 C285.312988,31.0827624 284.580141,28.7742941 284.718857,26.4342857 L284.718857,13.2274286 L287.804571,13.2274286 L287.804571,25.128 C287.685746,27.0772898 288.139827,29.0187548 289.110857,30.7131429 C289.985143,32.0091429 291.497143,32.6674286 293.636571,32.6674286 C295.523412,32.7212493 297.31021,31.8201151 298.388571,30.2708571 C299.619963,28.5123532 300.241365,26.3988633 300.157714,24.2537143 L300.157714,13.2274286 L303.243429,13.2274286 L303.243429,29.9931429 C303.243429,31.5874286 303.243429,32.7497143 303.336,33.4697143 C303.428571,34.1897143 303.428571,34.6114286 303.428571,34.7348571 L300.445714,34.7348571 C300.322286,33.2022857 300.260571,31.9782857 300.260571,31.0525714 L300.168,31.0525714 C299.531897,32.3386165 298.515679,33.3979257 297.257143,34.0868571 C295.920371,34.8652621 294.401745,35.2768522 292.854857,35.28 Z" id="路径"></path>
            <path d="M319.957714,35.28 C316.951541,35.3894932 314.039839,34.2195796 311.945143,32.0605714 C309.872121,29.8897628 308.759994,26.9759903 308.859429,23.976 C308.763488,20.9765952 309.875117,18.0641285 311.945143,15.8914286 C314.043831,13.7394844 316.953778,12.5740117 319.957714,12.6822857 C321.558021,12.6818613 323.13495,13.066392 324.555429,13.8034286 C325.997486,14.5219016 327.224925,15.60744 328.114286,16.9508571 L328.206857,16.9508571 L328.206857,0 L331.292571,0 L331.292571,34.7348571 L328.206857,34.7348571 L328.206857,31.104 L328.114286,31.104 C327.222789,32.4223451 326.003348,33.4858116 324.576,34.1897143 C323.143381,34.9103028 321.561345,35.28379 319.957714,35.28 Z M320.286857,32.616 C322.529541,32.6877952 324.694942,31.792413 326.232,30.1577143 C327.791372,28.4882272 328.627027,26.2696748 328.556571,23.9862857 C328.618113,21.7005744 327.775389,19.4828777 326.211429,17.8148571 C324.68207,16.1791481 322.525378,15.2767824 320.286857,15.336 C318.041997,15.2352877 315.868147,16.1357212 314.352,17.7942857 C312.867145,19.5007476 312.081048,21.7047556 312.150857,23.9657143 C312.010987,26.3259522 312.869445,28.6363227 314.516571,30.3325714 C316.055847,31.8368995 318.135006,32.6596683 320.286857,32.616 L320.286857,32.616 Z" id="形状"></path>
            <path d="M344.633143,35.28 C342.96845,35.3022769 341.319968,34.9507882 339.809143,34.2514286 C338.326719,33.5724567 337.054684,32.5065059 336.126857,31.1657143 L338.616,29.3245714 C339.220476,30.334696 340.083221,31.1654869 341.115429,31.7314286 C343.312662,32.976256 345.997529,32.9957116 348.212571,31.7828571 C349.177148,31.1588894 349.725145,30.0589515 349.642286,28.9131429 C349.687984,27.7588584 348.992912,26.7038385 347.914286,26.2902857 C346.427341,25.6621559 344.889093,25.1631717 343.316571,24.7988571 C341.895752,24.525048 340.536524,23.9952973 339.305143,23.2354286 C338.62722,22.7727925 338.07281,22.151288 337.690286,21.4251429 C337.42622,20.9216786 337.255468,20.3745734 337.186286,19.8102857 C337.186286,19.3885714 337.186286,19.1108571 337.186286,18.9874286 C337.127046,17.6306231 337.566045,16.2989923 338.420571,15.2434286 C339.229356,14.292346 340.303894,13.6046417 341.506286,13.2685714 C342.604102,12.9358736 343.743266,12.7592858 344.890286,12.7439975 C346.417383,12.742918 347.924051,13.0949432 349.292571,13.7725714 C350.5869,14.3766402 351.664158,15.3641268 352.378286,16.6011429 L349.992,18.3908571 C349.524995,17.4594451 348.786095,16.6918503 347.873143,16.1897143 C346.911472,15.6316974 345.816912,15.3438425 344.705143,15.3565714 C343.575301,15.3241462 342.460383,15.620743 341.496,16.2102857 C340.62495,16.7345053 340.11154,17.6941869 340.158857,18.7097143 C340.101326,19.6923833 340.618915,20.6192297 341.485714,21.0857143 C342.741277,21.6829567 344.068884,22.1151205 345.435429,22.3714286 C346.923151,22.6499634 348.363806,23.1382624 349.714286,23.8217143 C350.631299,24.2524855 351.411005,24.9289431 351.966857,25.776 C352.313944,26.335419 352.548067,26.9574195 352.656,27.6068571 C352.717714,28.1314286 352.748571,28.4708571 352.748571,28.6354286 C352.888242,30.6121666 351.992765,32.5199216 350.382857,33.6754286 C348.676889,34.788819 346.669116,35.3491277 344.633143,35.28 L344.633143,35.28 Z" id="路径"></path>
            <path d="M376.508571,35.5577143 C374.31,35.6021353 372.146594,35.0013878 370.285714,33.8297143 C368.455282,32.6417001 367.036357,30.9174368 366.222857,28.8925714 L369.308571,27.7508571 C369.811861,29.2239811 370.779042,30.4943082 372.065143,31.3714286 C373.356193,32.2674538 374.896136,32.7351935 376.467429,32.7085714 C378.366403,32.7664074 380.211272,32.0713466 381.6,30.7748571 C382.989755,29.4679318 383.74087,27.6201875 383.657143,25.7142857 C383.806604,23.7216332 382.876149,21.8018354 381.219429,20.6845714 C379.412776,19.5771584 377.320029,19.0262473 375.202286,19.1005714 L373.782857,19.1005714 L373.782857,16.2617143 L375.202286,16.2617143 C377.138537,16.3528895 379.056009,15.8465907 380.694857,14.8114286 C382.11258,13.7564806 382.889378,12.0475261 382.752,10.2857143 C382.796704,8.61993571 382.108694,7.01833692 380.869714,5.904 C379.636125,4.75956881 378.005736,4.13987338 376.323429,4.176 C375.040332,4.16937152 373.781551,4.52596669 372.692571,5.20457143 C371.596218,5.89850639 370.707759,6.87581089 370.121143,8.03314286 L367.313143,6.56228571 C368.198229,4.94413356 369.520575,3.60753069 371.129143,2.70514286 C372.78409,1.82692138 374.635366,1.38445588 376.508571,1.41942857 C378.990137,1.33544796 381.414006,2.1788515 383.307429,3.78514286 C385.12233,5.39147714 386.11615,7.7305438 386.012571,10.152 C386.05999,11.8792993 385.49938,13.5684079 384.428571,14.9245714 C383.394561,16.2247948 381.970368,17.1586328 380.365714,17.5885714 L380.365714,17.6811429 C382.211309,18.0328948 383.880952,19.0056434 385.097143,20.4377143 C386.347678,21.9084762 387.020377,23.7839907 386.989714,25.7142857 C387.085351,29.3734114 385.034613,32.7510977 381.744,34.3542857 C380.117685,35.1613004 378.324039,35.5735922 376.508571,35.5577143 L376.508571,35.5577143 Z" id="路径"></path>
            <path d="M404.115429,34.7348571 L404.115429,2.20114286 L413.310857,2.20114286 C416.157932,2.04393496 418.978507,2.82040551 421.344,4.41257143 C423.339055,5.95064173 424.441117,8.37826149 424.285714,10.8925714 C424.429309,13.4196959 423.312316,15.8539703 421.302857,17.3931429 C418.918963,18.9880559 416.08244,19.7675585 413.218286,19.6148571 L407.427429,19.6148571 L407.427429,34.7348571 L404.115429,34.7348571 Z M407.427429,16.8171429 L413.033143,16.8171429 C415.113202,16.9531329 417.182169,16.419671 418.937143,15.2948571 C420.31658,14.2643299 421.088769,12.6118463 420.994286,10.8925714 C421.104336,9.1731921 420.328475,7.51672722 418.937143,6.50057143 C417.163498,5.42539015 415.103086,4.9192611 413.033143,5.05028571 L407.427429,5.05028571 L407.427429,16.8171429 Z" id="形状"></path>
            <path d="M429.428571,34.7348571 L429.428571,17.9588571 C429.428571,16.3748571 429.428571,15.2125714 429.336,14.4925714 C429.243429,13.7725714 429.243429,13.3508571 429.243429,13.2274286 L432.236571,13.2274286 C432.36,14.76 432.421714,15.984 432.421714,16.9097143 L432.514286,16.9097143 C433.120505,15.6331462 434.08555,14.5608744 435.291429,13.824 C436.521113,13.0446244 437.949914,12.637416 439.405714,12.6514286 C440.098469,12.634367 440.790375,12.7104767 441.462857,12.8777143 L441.051429,15.8194286 C440.744988,15.7323423 440.431948,15.6704223 440.115429,15.6342857 C439.696359,15.5742445 439.273632,15.5433133 438.850286,15.5417143 C437.114136,15.5078936 435.45666,16.2647319 434.345143,17.5988571 C433.152,18.9565714 432.555429,20.9931429 432.555429,23.688 L432.555429,34.7348571 L429.428571,34.7348571 Z" id="路径"></path>
            <path d="M454.700571,35.28 C451.631392,35.3858638 448.654441,34.2211319 446.472,32.0605714 C444.349087,29.9168029 443.206352,26.9911043 443.314286,23.976 C443.230262,20.9511286 444.398909,18.0257883 446.544,15.8914286 C451.192178,11.6044791 458.352965,11.6044791 463.001143,15.8914286 C465.154198,18.0212653 466.327416,20.9487225 466.241143,23.976 C466.33116,27.0039435 465.157366,29.9328389 463.001143,32.0605714 C460.798607,34.2355024 457.793603,35.4010121 454.700571,35.28 Z M454.700571,32.616 C456.932046,32.6920824 459.086509,31.7950149 460.604571,30.1577143 C462.135687,28.4742589 462.951014,26.2607008 462.877714,23.9862857 C462.940258,21.7136233 462.126364,19.5039556 460.604571,17.8148571 C459.091046,16.1688146 456.935522,15.2637951 454.700571,15.336 C452.4704,15.2573121 450.31858,16.1639353 448.817143,17.8148571 C447.305557,19.5087553 446.499572,21.7169341 446.564571,23.9862857 C446.491272,26.2607008 447.306599,28.4742589 448.837714,30.1577143 C450.342263,31.7896855 452.48202,32.6868818 454.700571,32.616 L454.700571,32.616 Z" id="形状"></path>
            <polygon id="路径" points="18.7097143 2.17028571 24.5005714 2.17028571 24.5005714 34.7348571 18.7097143 34.7348571 18.7097143 21.168 5.80114286 21.168 5.80114286 34.7348571 0 34.7348571 0 2.17028571 5.80114286 2.17028571 5.80114286 15.3668571 18.7097143 15.3668571"></polygon>
            <polygon id="路径" points="92.2834286 22.4845714 78.2022857 2.17028571 73.5737143 2.17028571 73.5737143 34.7348571 79.3748571 34.7348571 79.3748571 14.3074286 93.528 34.7348571 98.0845714 34.7348571 98.0845714 2.17028571 92.2834286 2.17028571"></polygon>
            <path d="M122.616,1.7177111 C115.854768,1.71355353 109.756977,5.78321944 107.166682,12.0285895 C104.576387,18.2739595 106.00385,25.4647582 110.783292,30.2471434 C115.562735,35.0295285 122.752653,36.4614181 128.999617,33.8749681 C135.24658,31.2885181 139.32,25.1932333 139.32,18.432 C139.32,9.20497023 131.843028,1.72339246 122.616,1.7177111 L122.616,1.7177111 Z M122.616,29.334862 C118.200176,29.3390171 114.217043,26.6816411 112.525258,22.6027468 C110.833473,18.5238524 111.766502,13.8274219 114.888962,10.7049618 C118.011422,7.58250167 122.707852,6.64947336 126.786747,8.34125809 C130.865641,10.0330428 133.523017,14.0161765 133.518862,18.432 C133.518862,21.3236175 132.370167,24.0968019 130.325484,26.1414842 C128.280802,28.1861666 125.507618,29.334862 122.616,29.334862 L122.616,29.334862 Z" id="形状"></path>
            <path d="M162.668571,22.8548571 C167.633315,21.2663216 170.704803,16.3022655 169.910637,11.1504288 C169.11647,5.99859216 164.692651,2.18995379 159.48,2.17028571 L147.137143,2.17028571 L147.137143,34.7348571 L152.938286,34.7348571 L152.938286,20.2422857 L165.024,34.7348571 L172.563429,34.7348571 L162.668571,22.8548571 Z M152.948571,17.5577143 L152.948571,7.97142857 L159.428571,7.97142857 C162.075751,7.97142857 164.221714,10.1173917 164.221714,12.7645714 C164.221714,15.4117511 162.075751,17.5577143 159.428571,17.5577143 L152.948571,17.5577143 Z" id="形状"></path>
            <path d="M49.0422857,1.7177111 C42.2810537,1.71355353 36.1832626,5.78321944 33.5929676,12.0285895 C31.0026726,18.2739595 32.430136,25.4647582 37.2095781,30.2471434 C41.9890203,35.0295285 49.1789389,36.4614181 55.4259023,33.8749681 C61.6728656,31.2885181 65.7462857,25.1932333 65.7462857,18.432 C65.7462857,9.20497023 58.2693137,1.72339246 49.0422857,1.7177111 Z M49.0422857,29.334862 C44.6264622,29.3390171 40.6433285,26.6816411 38.9515438,22.6027468 C37.2597591,18.5238524 38.1927874,13.8274219 41.3152475,10.7049618 C44.4377077,7.58250167 49.1341381,6.64947336 53.2130325,8.34125809 C57.2919268,10.0330428 59.9493028,14.0161765 59.9451477,18.432 C59.9451477,21.3236175 58.7964523,24.0968019 56.7517699,26.1414842 C54.7070876,28.1861666 51.9339032,29.334862 49.0422857,29.334862 L49.0422857,29.334862 Z" id="形状"></path>
        </g>
    </g>
</svg>