<svg xmlns="http://www.w3.org/2000/svg" viewBox="0 0 527.49 44"><g id="图层_2" data-name="图层 2"><g id="图层_1-2" data-name="图层 1"><path d="M184.74,33.4V2.12h4.86L200.21,28l.09-.27L210.72,2.12h4.86V33.4H212.4V6.23h-.09L201,33.4h-1.68L188,6.23h-.08V33.4Z"/><path d="M228.21,33.93A7.62,7.62,0,0,1,223,32.2a5.72,5.72,0,0,1-2-4.55c.06-2.2.79-3.77,2.21-4.7a10.76,10.76,0,0,1,4.46-1.72c1.56-.22,3.31-.38,5.25-.47l2.65,0v-.66a5.28,5.28,0,0,0-1.41-4,5.72,5.72,0,0,0-4.11-1.35,9,9,0,0,0-3.4.66A8.26,8.26,0,0,0,224,17.14l-1.68-2A10,10,0,0,1,225.74,13a13,13,0,0,1,4.68-.82,8.52,8.52,0,0,1,5.79,2,6.94,6.94,0,0,1,2.25,5.56v9.06a25,25,0,0,0,.36,4.64h-2.7a18.14,18.14,0,0,1-.26-2.17c0-.59-.05-1-.05-1.19h-.09a9.08,9.08,0,0,1-3.2,3A9.24,9.24,0,0,1,228.21,33.93Zm.8-2.48a6.21,6.21,0,0,0,4.84-2,7,7,0,0,0,1.78-4.86V23.06h-.88a26.46,26.46,0,0,0-7.64.91c-2,.6-3,1.79-3,3.55a3.33,3.33,0,0,0,1.41,3A6,6,0,0,0,229,31.45Z"/><path d="M254,44a14.09,14.09,0,0,1-5.46-1.1,13.34,13.34,0,0,1-4.48-3l2.16-2.3a10,10,0,0,0,3.45,2.72,9.87,9.87,0,0,0,4.46,1.08q4.2,0,6.14-2.25a8.68,8.68,0,0,0,1.95-5.88V29.33h-.09a8.06,8.06,0,0,1-3.34,3,9.79,9.79,0,0,1-4.48,1.11,10.46,10.46,0,0,1-7.75-2.94,10.25,10.25,0,0,1-2.94-7.58,10.48,10.48,0,0,1,3-7.59,10.23,10.23,0,0,1,7.69-3.1,9.71,9.71,0,0,1,4.48,1.09,8.15,8.15,0,0,1,3.34,3h.09V12.72h3v20.5a10.7,10.7,0,0,1-2.89,7.89C260.37,43,257.59,44,254,44Zm.62-13.16a7.73,7.73,0,0,0,5.72-2.26,7.85,7.85,0,0,0,2.23-5.78,7.94,7.94,0,0,0-2.3-5.7,7.53,7.53,0,0,0-5.65-2.39A7.35,7.35,0,0,0,248.91,17a8.18,8.18,0,0,0-2.14,5.77,8.12,8.12,0,0,0,2.12,5.74A7.38,7.38,0,0,0,254.59,30.84Z"/><path d="M273.45,6.89A2,2,0,0,1,272,6.27a2,2,0,0,1-.64-1.5,2,2,0,0,1,.64-1.5,2.08,2.08,0,0,1,3,0,2,2,0,0,1,.64,1.5,2,2,0,0,1-.64,1.5A2,2,0,0,1,273.45,6.89ZM272,33.4V12.72h3V33.4Z"/><path d="M291.39,33.93a10.83,10.83,0,0,1-8-3.07,10.6,10.6,0,0,1-3.07-7.8,10.6,10.6,0,0,1,3.07-7.8,10.83,10.83,0,0,1,8-3.07,10.47,10.47,0,0,1,4.3.93,8.27,8.27,0,0,1,3.38,2.65l-2.34,1.68a5.74,5.74,0,0,0-2.18-2,6.55,6.55,0,0,0-3.12-.77,7.44,7.44,0,0,0-5.72,2.36,8.49,8.49,0,0,0-2.19,6,8.39,8.39,0,0,0,2.17,6,7.36,7.36,0,0,0,5.7,2.35,6.52,6.52,0,0,0,3.53-.84A7.61,7.61,0,0,0,297,28.67l2.25,1.68a8.58,8.58,0,0,1-3.91,2.89A12.7,12.7,0,0,1,291.39,33.93Z"/><path d="M317.23,33.4V25.84H302.92V22.75L316.17,2.12h4.15V23.06h4.6v2.78h-4.6V33.4Zm-11-10.34h11V5.7h-.09Z"/><path d="M351.2,34.19a11.59,11.59,0,0,1-7-1.9,10.12,10.12,0,0,1-3.66-4.72,16.44,16.44,0,0,1-1.07-5.83V2.12h3.19V21.38a11.88,11.88,0,0,0,2.05,7.11q2.06,2.88,6.47,2.88c2.95,0,5.1-1,6.47-2.88a11.89,11.89,0,0,0,2.06-7.11V2.12h3.18V21.74a16.66,16.66,0,0,1-1.06,5.83,10.2,10.2,0,0,1-3.67,4.72A11.57,11.57,0,0,1,351.2,34.19Z"/><path d="M369.84,33.4V0h3V33.4Z"/><path d="M385.57,33.66a5.9,5.9,0,0,1-3.71-1.23q-1.59-1.24-1.59-4.29V15.24H376V12.72h4.29V6.89h3v5.83h5.83v2.52h-5.83V27.3a4.27,4.27,0,0,0,.8,3,3,3,0,0,0,2.3.82,5.79,5.79,0,0,0,2.6-.66l.13,2.6a7.89,7.89,0,0,1-2.38.58Z"/><path d="M394.23,6.89a2,2,0,0,1-1.48-.62,2,2,0,0,1-.64-1.5,2,2,0,0,1,.64-1.5,2.08,2.08,0,0,1,3,0,2.08,2.08,0,0,1,0,3A2,2,0,0,1,394.23,6.89Zm-1.5,26.51V12.72h3V33.4Z"/><path d="M402.62,33.4V17.27q0-2.29-.09-3.33c0-.69-.08-1.1-.08-1.22h2.87c.11,1.48.17,2.65.17,3.54h.09a7.34,7.34,0,0,1,2.76-2.94,7.71,7.71,0,0,1,7.76-.16,6.33,6.33,0,0,1,2.65,3.41,7.69,7.69,0,0,1,2.91-3.25A8.2,8.2,0,0,1,426,12.19a7.4,7.4,0,0,1,5.86,2.3,9.18,9.18,0,0,1,2,6.23V33.4h-3V22a9.07,9.07,0,0,0-1.35-5.44,4.68,4.68,0,0,0-4-1.81,4.89,4.89,0,0,0-4.44,2.23,9.87,9.87,0,0,0-1.44,5.46v11h-3V21.34a9.13,9.13,0,0,0-1.09-4.95c-.72-1.12-2-1.68-3.91-1.68a5.35,5.35,0,0,0-4.24,2.14,9.14,9.14,0,0,0-1.76,5.95V33.4Z"/><path d="M446.14,33.93A7.6,7.6,0,0,1,441,32.2a5.69,5.69,0,0,1-2-4.55c.06-2.2.79-3.77,2.21-4.7a10.76,10.76,0,0,1,4.46-1.72c1.56-.22,3.31-.38,5.26-.47l2.65,0v-.66a5.25,5.25,0,0,0-1.42-4,5.71,5.71,0,0,0-4.1-1.35,9,9,0,0,0-3.41.66,8.26,8.26,0,0,0-2.74,1.77l-1.67-2A9.85,9.85,0,0,1,443.66,13a13.08,13.08,0,0,1,4.69-.82,8.51,8.51,0,0,1,5.78,2,7,7,0,0,1,2.26,5.56v9.06a25.13,25.13,0,0,0,.35,4.64H454a20.47,20.47,0,0,1-.26-2.17c0-.59,0-1,0-1.19h-.08a9.11,9.11,0,0,1-3.21,3A9.22,9.22,0,0,1,446.14,33.93Zm.79-2.48a6.2,6.2,0,0,0,4.84-2,7,7,0,0,0,1.79-4.86V23.06h-.89A26.46,26.46,0,0,0,445,24c-2,.6-3,1.79-3,3.55a3.33,3.33,0,0,0,1.41,3A6,6,0,0,0,446.93,31.45Z"/><path d="M468.8,33.66a5.9,5.9,0,0,1-3.71-1.23q-1.59-1.24-1.59-4.29V15.24h-4.29V12.72h4.29V6.89h3v5.83h5.83v2.52H466.5V27.3a4.27,4.27,0,0,0,.8,3,3,3,0,0,0,2.29.82,5.8,5.8,0,0,0,2.61-.66l.13,2.6a8,8,0,0,1-2.38.58Z"/><path d="M485.1,33.93a10.29,10.29,0,0,1-7.64-3.09,10.66,10.66,0,0,1-3-7.78,10.75,10.75,0,0,1,3-7.75,9.87,9.87,0,0,1,7.44-3.12,9.36,9.36,0,0,1,7.27,2.87,10.54,10.54,0,0,1,2.63,7.38c0,.59,0,1.06,0,1.42H477.54A7.19,7.19,0,0,0,480,29.33a7.81,7.81,0,0,0,11.78-1.54L494,29.55A10.82,10.82,0,0,1,489.76,33,12.06,12.06,0,0,1,485.1,33.93Zm-7.51-12.46h14.09a7.29,7.29,0,0,0-1.92-4.88,6.48,6.48,0,0,0-4.93-1.88,6.88,6.88,0,0,0-5,2A7.27,7.27,0,0,0,477.59,21.47Z"/><polygon points="17.99 2.09 23.57 2.09 23.57 33.4 17.99 33.4 17.99 20.36 5.58 20.36 5.58 33.4 0 33.4 0 2.09 5.58 2.09 5.58 14.78 17.99 14.78 17.99 2.09"/><polygon points="88.74 21.63 75.2 2.09 70.75 2.09 70.75 33.4 76.33 33.4 76.33 13.76 89.94 33.4 94.32 33.4 94.32 2.09 88.74 2.09 88.74 21.63"/><path d="M117.91,1.66A16.06,16.06,0,1,0,134,17.72,16.06,16.06,0,0,0,117.91,1.66Zm0,26.55A10.49,10.49,0,1,1,128.4,17.72,10.49,10.49,0,0,1,117.91,28.21Z"/><path d="M156.43,22a10.19,10.19,0,0,0-3.07-19.89H141.51V33.4h5.57V19.46L158.7,33.4H166Zm-9.35-5.09V7.66h6.21a4.62,4.62,0,0,1,0,9.23Z"/><path d="M47.16,1.66A16.06,16.06,0,1,0,63.22,17.72,16.07,16.07,0,0,0,47.16,1.66Zm0,26.55A10.49,10.49,0,1,1,57.65,17.72,10.49,10.49,0,0,1,47.16,28.21Z"/><path d="M510.13,15.07a3.12,3.12,0,0,1-1.75-.48,2.86,2.86,0,0,1-1.09-1.31l1.1-.44a2,2,0,0,0,.68.87,1.82,1.82,0,0,0,1.06.33,1.79,1.79,0,0,0,1.33-.54,1.84,1.84,0,0,0,.54-1.38,1.77,1.77,0,0,0-.6-1.45,2.27,2.27,0,0,0-1.49-.5,4.08,4.08,0,0,0-1,.13,4.17,4.17,0,0,0-1,.36l.12-4.74h4.82V7h-3.68l-.08,2.34a3.55,3.55,0,0,1,1.15-.16,3.08,3.08,0,0,1,2.15.77,2.65,2.65,0,0,1,.84,2,3.13,3.13,0,0,1-.41,1.61,2.88,2.88,0,0,1-1.11,1.08A3.4,3.4,0,0,1,510.13,15.07Z"/><path d="M519.59,15.07a4.73,4.73,0,0,1-3.43-1.31,4.57,4.57,0,0,1-1.34-3.39A4.47,4.47,0,0,1,516.17,7a4.65,4.65,0,0,1,3.4-1.31,5.68,5.68,0,0,1,1.89.3,4.16,4.16,0,0,1,1.42.85l-.87.91a2.89,2.89,0,0,0-1-.7,3.54,3.54,0,0,0-1.38-.27,3.17,3.17,0,0,0-2.46,1,3.61,3.61,0,0,0-1,2.55,3.62,3.62,0,0,0,1,2.56,3.26,3.26,0,0,0,2.49,1,5,5,0,0,0,1.28-.14,3.75,3.75,0,0,0,.8-.3V11h-2V10h3.22v4.32a5.81,5.81,0,0,1-1.78.64A10.35,10.35,0,0,1,519.59,15.07Z"/><path d="M521.87,18.72H508.18a5.63,5.63,0,0,1-5.62-5.63V7.71a5.62,5.62,0,0,1,5.62-5.62h13.69a5.62,5.62,0,0,1,5.62,5.62v5.38A5.63,5.63,0,0,1,521.87,18.72ZM508.18,2.93a4.79,4.79,0,0,0-4.78,4.78v5.38a4.79,4.79,0,0,0,4.78,4.78h13.69a4.79,4.79,0,0,0,4.78-4.78V7.71a4.79,4.79,0,0,0-4.78-4.78Z"/></g></g></svg>