<?xml version="1.0" encoding="UTF-8"?>
<svg width="412px" height="44px" viewBox="0 0 412 44" version="1.1" xmlns="http://www.w3.org/2000/svg" xmlns:xlink="http://www.w3.org/1999/xlink">
    <title>资源 1</title>
    <g id="页面-1" stroke="none" stroke-width="1" fill="none" fill-rule="evenodd">
        <g id="画板备份-3" transform="translate(-987.000000, -1959.000000)">
            <g id="资源-1" transform="translate(987.000000, 1959.000000)">
                <g id="编组" fill="#000000" fill-rule="nonzero">
                    <polygon id="路径" points="200.026019 0.991146178 211.84557 23.1912305 211.935674 23.1912305 223.845329 0.991146178 228.249834 0.991146178 228.249834 34.0222851 224.205746 34.0222851 224.205746 8.09082696 224.115642 8.09082696 212.879118 29.5276757 210.902126 29.5276757 199.623201 8.09082696 199.533096 8.09082696 199.533096 34.0222851 195.489008 34.0222851 195.489008 0.991146178"></polygon>
                    <g>
                        <path d="M244.291032,10.2029754 C246.866952,10.2029754 248.934048,10.8469554 250.492321,12.1349154 C252.169849,13.5447811 253.009938,15.4899717 253.009938,17.9757875 L253.009938,34.019635 L249.146058,34.019635 L249.146058,31.0541468 L249.101006,31.0541468 C247.243269,33.3014515 244.770704,34.4251039 241.68596,34.4251039 C239.409504,34.4251039 237.535867,33.826176 236.067699,32.6283202 C234.419322,31.2794073 233.595133,29.4296212 233.595133,27.0789616 C233.595133,24.7283021 234.522677,22.8493646 236.380413,21.4394989 C238.116244,20.1223875 240.363549,19.4625068 243.122327,19.4625068 C245.279528,19.4625068 247.285671,19.8388243 249.143408,20.5861591 L249.143408,18.2036981 C249.143408,16.7355297 248.716738,15.6198277 247.863398,14.8565922 C247.010058,14.0933566 245.817503,13.7117388 244.291032,13.7117388 C241.505752,13.7117388 239.271698,14.7903391 237.59417,16.9475396 L234.989098,14.5200265 C235.768235,13.4705776 236.936939,12.5271337 238.495212,11.6896946 C240.352948,10.7011986 242.284888,10.2056255 244.291032,10.2056255 M237.639222,26.8775522 C237.639222,29.6045293 239.123291,30.9666928 242.088779,30.9666928 C244.185027,30.9375414 245.878456,30.4499187 247.166416,29.5064747 C248.454376,28.5630308 249.114256,27.4473288 249.143408,26.1593688 L249.143408,23.9571162 C247.526833,23.0878757 245.54719,22.6532554 243.212431,22.6532554 C241.564055,22.6532554 240.246943,22.9977715 239.258447,23.6868036 C238.179847,24.4367885 237.641872,25.499488 237.641872,26.8775522" id="形状"></path>
                        <path d="M268.51581,44 C264.561826,44 261.22002,42.6669879 258.493043,40.0009637 L260.605192,37.1255797 C262.852497,39.3728844 265.486719,40.4965368 268.51581,40.4965368 C271.210986,40.4965368 273.190628,39.7624526 274.446787,38.2942842 C275.435283,37.1255797 275.930856,35.5673071 275.930856,33.6194664 L275.930856,30.4287177 L275.7957,30.4287177 C275.135819,31.4463651 274.179124,32.2864543 272.920316,32.946335 C271.452147,33.7254713 269.848823,34.1150395 268.112992,34.1150395 C265.115702,34.1150395 262.629886,33.0947419 260.652894,31.0594471 C258.553996,28.8730952 257.507197,25.9526592 257.507197,22.2954888 C257.507197,18.8503283 258.540746,15.9722942 260.607842,13.6666867 C262.674938,11.3610793 265.28266,10.2056255 268.428356,10.2056255 C270.076733,10.2056255 271.648256,10.624345 273.148226,11.4644341 C274.465338,12.2144191 275.453834,13.1128109 276.113714,14.1596097 L276.158766,14.1596097 L276.158766,10.6534964 L279.800036,10.6534964 L279.800036,33.6168162 C279.800036,36.852617 278.81684,39.3914353 276.855749,41.2332711 C274.892007,43.0751069 272.114678,43.9973499 268.518461,43.9973499 M261.551286,22.1099801 C261.551286,24.6567488 262.224417,26.7238451 263.57333,28.311269 C264.86129,29.8403903 266.477865,30.6036259 268.425706,30.6036259 C270.911522,30.6036259 272.843462,29.8403903 274.221526,28.311269 C275.538638,26.872252 276.198518,24.940312 276.198518,22.5127989 C276.198518,19.7275191 275.435283,17.5252665 273.906162,15.9060411 C272.496296,14.4378727 270.752515,13.7037885 268.669518,13.7037885 C266.586521,13.7037885 264.877191,14.5067759 263.546829,16.1074505 C262.213817,17.7107752 261.545986,19.7116184 261.545986,22.10733" id="形状"></path>
                        <path d="M285.277841,2.6527736 C285.277841,1.93459013 285.508402,1.31181112 285.974824,0.787086671 C286.438595,0.262362224 287.058724,1.29458036e-15 287.840511,1.29458036e-15 C288.622297,1.29458036e-15 289.263627,0.270312594 289.772451,0.808287659 C290.222972,1.28796001 290.445582,1.90278865 290.445582,2.65012347 C290.445582,3.33915557 290.199121,3.94603385 289.703548,4.4707583 C289.207974,4.99548274 288.593146,5.25784497 287.861712,5.25784497 C287.130278,5.25784497 286.512799,4.99548274 286.019876,4.4707583 C285.524303,3.94603385 285.277841,3.3418057 285.277841,2.65012347 M285.950973,10.6508462 L289.814853,10.6508462 L289.814853,34.019635 L285.950973,34.019635 L285.950973,10.6534964 L285.950973,10.6508462 Z" id="形状"></path>
                        <path d="M306.309221,10.2029754 C308.076854,10.2029754 309.786183,10.6216949 311.43191,11.461784 C312.870927,12.2091188 314.066133,13.1525628 315.028127,14.2921159 L312.465458,16.719629 C311.776426,15.9113413 310.981389,15.2514606 310.082997,14.7426369 C308.885141,14.0536048 307.626333,13.7090887 306.306571,13.7090887 C304.120219,13.7090887 302.344637,14.4802746 300.982473,16.0226465 C299.62031,17.5650184 298.936578,19.640065 298.936578,22.2477865 C298.936578,24.855508 299.62561,26.9517557 301.003674,28.5391797 C302.381738,30.1292537 304.210323,30.9216407 306.486779,30.9216407 C307.864844,30.9216407 309.152804,30.5161718 310.35066,29.7078841 C311.310004,29.0480034 312.118292,28.223815 312.778173,27.2353189 L315.608504,29.3024152 C314.948624,30.5320725 313.856773,31.6769259 312.327652,32.7396254 C310.79853,33.804975 308.792387,34.3668012 306.306571,34.4251039 C302.980666,34.4251039 300.248389,33.2935012 298.104439,31.0329459 C295.963139,28.7697404 294.889839,25.841354 294.889839,22.2477865 C294.889839,18.6542191 295.947238,15.8583389 298.059387,13.5977835 C300.171535,11.3372282 302.919713,10.2056255 306.306571,10.2056255" id="路径"></path>
                        <polygon id="路径" points="342.260796 34.0222851 330.261037 0.991146178 334.575438 0.991146178 344.417997 29.2573631 344.508101 29.2573631 354.215503 0.991146178 358.529904 0.991146178 346.530145 34.0222851"></polygon>
                        <path d="M362.528941,27.3704752 C364.058062,29.7370355 366.392821,30.9216407 369.538517,30.9216407 C370.826477,30.9216407 371.897127,30.6301271 372.753117,30.0444498 C373.606457,29.4587725 374.033127,28.674336 374.033127,27.6858399 C374.033127,26.5754382 373.524303,25.6929471 372.504005,25.0357164 C371.75402,24.5560441 370.527013,24.1214238 368.817684,23.7318557 C366.270915,23.1620791 364.368126,22.4147443 363.109318,21.484551 C361.521894,20.2866952 360.726857,18.6833705 360.726857,16.677227 C360.726857,14.6710835 361.596097,13.0677588 363.334578,11.869903 C364.922002,10.7595013 366.853942,10.2082756 369.130398,10.2082756 C370.837078,10.2082756 372.501355,10.5845931 374.11793,11.331928 C375.586099,12.0209601 376.648798,12.8292477 377.308679,13.7594411 L374.836114,16.2320063 C373.306993,14.5544781 371.375053,13.714389 369.040294,13.714389 C367.810637,13.714389 366.80624,13.9688008 366.029754,14.4776245 C365.189665,15.0182497 364.770945,15.7814853 364.770945,16.7699813 C364.770945,17.9095344 365.338071,18.7787749 366.477625,19.3777028 C367.105704,19.7089683 368.380413,20.0958863 370.296452,20.5464073 C372.723966,21.1161838 374.565801,21.9112209 375.82461,22.9288683 C377.32193,24.1267241 378.071915,25.6876468 378.071915,27.6036861 C378.071915,29.7900379 377.141721,31.5126182 375.286635,32.7714269 C373.67006,33.8791785 371.677167,34.4330543 369.310607,34.4330543 C367.211709,34.4330543 365.279769,33.956032 363.512136,32.9940372 C361.895561,32.1247967 360.740107,31.077998 360.051075,29.8483407 L362.52364,27.3757755 L362.528941,27.3704752 Z" id="路径"></path>
                        <polygon id="路径" points="19.0411371 0.874540746 24.9456122 0.874540746 24.9456122 34.0169849 19.0411371 34.0169849 19.0411371 20.2124917 5.90182497 20.2124917 5.90182497 34.0169849 0 34.0169849 0 0.874540746 5.90182497 0.874540746 5.90182497 14.3080166 19.0411371 14.3080166"></polygon>
                        <polygon id="路径" points="93.9309763 21.5587544 79.5964585 0.874540746 74.8924893 0.874540746 74.8924893 34.0169849 80.7943143 34.0169849 80.7943143 13.2347166 95.1977353 34.0169849 99.8354514 34.0169849 99.8354514 0.874540746 93.9309763 0.874540746"></polygon>
                        <path d="M124.807565,0.418719509 C115.415527,0.418719509 107.801723,8.03252424 107.801723,17.4219117 C107.801723,26.8112992 115.415527,34.4251039 124.807565,34.4251039 C134.199602,34.4251039 141.813407,26.8112992 141.813407,17.4219117 C141.813407,8.03252424 134.199602,0.418719509 124.807565,0.418719509 M124.807565,28.5232789 C118.675179,28.5232789 113.706198,23.5542974 113.706198,17.4219117 C113.706198,11.289526 118.675179,6.32054448 124.807565,6.32054448 C130.939951,6.32054448 135.908932,11.289526 135.908932,17.4219117 C135.908932,23.5542974 130.939951,28.5232789 124.807565,28.5232789" id="形状"></path>
                        <path d="M165.579715,21.935072 C169.933867,20.5490574 173.087514,16.4705174 173.087514,11.6605433 C173.087514,5.7136662 168.27489,0.89309161 162.333313,0.877190869 L149.782328,0.877190869 L149.782328,34.019635 L155.686804,34.019635 L155.686804,19.2690478 L167.986027,34.019635 L175.658134,34.019635 L165.582365,21.935072 L165.579715,21.935072 Z M155.684153,16.5420707 L155.684153,6.77901584 L162.25911,6.77901584 C164.954285,6.77901584 167.137987,8.96271758 167.137987,11.6605433 C167.137987,14.358369 164.951635,16.5420707 162.25646,16.5420707 L155.684153,16.5420707 Z" id="形状"></path>
                        <path d="M49.9177257,0.418719509 C40.5256881,0.418719509 32.9118834,8.03252424 32.9118834,17.4219117 C32.9118834,26.8112992 40.5256881,34.4251039 49.9177257,34.4251039 C59.3097633,34.4251039 66.9209179,26.8112992 66.9209179,17.4219117 C66.9209179,8.03252424 59.3097633,0.418719509 49.9177257,0.418719509 M49.9177257,28.5232789 C43.78534,28.5232789 38.8163585,23.5542974 38.8163585,17.4219117 C38.8163585,11.289526 43.78534,6.32054448 49.9177257,6.32054448 C56.0501114,6.32054448 61.0190929,11.289526 61.0190929,17.4219117 C61.0190929,23.5542974 56.0501114,28.5232789 49.9177257,28.5232789" id="形状"></path>
                        <path d="M405.553695,17.4881648 L391.945311,17.4881648 C388.863217,17.4881648 386.356201,14.981148 386.356201,11.8990544 L386.356201,6.5484551 C386.356201,3.4663615 388.863217,0.959344697 391.945311,0.959344697 L405.553695,0.959344697 C408.635789,0.959344697 411.142806,3.4663615 411.142806,6.5484551 L411.142806,11.9017045 C411.142806,14.9837981 408.635789,17.4908149 405.553695,17.4908149 M391.945311,1.80208396 C389.326989,1.80208396 387.19894,3.93278323 387.19894,6.5484551 L387.19894,11.9017045 C387.19894,14.5200265 389.329639,16.6480756 391.945311,16.6480756 L405.553695,16.6480756 C408.172017,16.6480756 410.300066,14.5173764 410.300066,11.9017045 L410.300066,6.5484551 C410.300066,3.93013311 408.169367,1.80208396 405.553695,1.80208396 L391.945311,1.80208396 Z" id="形状"></path>
                        <path d="M394.155514,13.8097934 C393.42143,13.8097934 392.793351,13.5845329 392.276577,13.1313618 C391.775703,12.6940914 391.468289,12.1322653 391.354334,11.4458833 L392.398482,11.4458833 C392.512438,11.8407517 392.705897,12.1640667 392.981509,12.4158285 C393.312775,12.7152924 393.712943,12.8663495 394.182015,12.8663495 C394.730591,12.8663495 395.181112,12.7020418 395.528278,12.3681262 C395.899295,12.0130097 396.084804,11.5306872 396.084804,10.9185087 C396.084804,10.3063302 395.893995,9.83725833 395.515027,9.50599289 C395.183762,9.21447931 394.762392,9.06872252 394.253569,9.06872252 C393.567187,9.06872252 393.010661,9.2701319 392.581341,9.6756008 L391.645847,9.6756008 L392.106969,4.75167138 L396.508824,4.75167138 L396.508824,5.67391435 L393.029212,5.67391435 L392.737698,8.59435042 C392.891405,8.47509486 393.111365,8.36908992 393.392279,8.27898573 C393.723544,8.17563091 394.049509,8.12262844 394.375474,8.12262844 C395.159911,8.12262844 395.817141,8.37704029 396.352466,8.885864 C396.901042,9.41058845 397.176655,10.0731193 397.176655,10.8734566 C397.176655,11.7797988 396.901042,12.4953322 396.352466,13.0200566 C395.801241,13.5447811 395.072457,13.8071433 394.158164,13.8071433" id="路径"></path>
                        <path d="M402.617358,13.8097934 C401.3665,13.8097934 400.343552,13.3910739 399.556466,12.5536349 C398.769379,11.7161959 398.374511,10.603144 398.374511,9.21447931 C398.374511,7.82581461 398.79853,6.65976028 399.64657,5.81702102 C400.454858,5.01668373 401.491056,4.61651509 402.749864,4.61651509 C403.380594,4.61651509 403.971571,4.73842077 404.522797,4.979582 C405.028971,5.2048425 405.44769,5.50695657 405.771005,5.87797386 L405.031621,6.61735831 C404.403542,5.94687707 403.624405,5.61031139 402.704812,5.61031139 C401.832922,5.61031139 401.090887,5.92302596 400.484009,6.54580498 C399.829428,7.22423658 399.503463,8.11467807 399.503463,9.21447931 C399.503463,10.3142806 399.802927,11.1623201 400.401855,11.8328013 C400.990182,12.4873818 401.742818,12.813347 402.65711,12.813347 C403.216286,12.813347 403.73306,12.7232428 404.210083,12.535084 C404.663254,12.3575257 404.952117,12.1455159 405.084623,11.9043546 L405.084623,10.0625188 L402.670361,10.0625188 L402.670361,9.11642474 L406.152623,9.11642474 L406.152623,12.341625 C405.87701,12.7629946 405.43709,13.1048606 404.830211,13.372523 C404.175631,13.6640366 403.441547,13.8097934 402.622659,13.8097934" id="路径"></path>
                    </g>
                </g>
                <rect id="矩形" x="0" y="0.00265012347" width="378.530386" height="34.1415407"></rect>
            </g>
        </g>
    </g>
</svg>