<svg xmlns="http://www.w3.org/2000/svg" viewBox="0 0 454.04 44"><g id="图层_2" data-name="图层 2"><g id="图层_1-2" data-name="图层 1"><path d="M184.74,33.4V2.12h4.86L200.21,28l.09-.27L210.72,2.12h4.86V33.4H212.4V6.23h-.09L201,33.4h-1.68L188,6.23h-.08V33.4Z"/><path d="M228.21,33.93a7.57,7.57,0,0,1-5.16-1.73,5.69,5.69,0,0,1-2-4.55c.06-2.2.79-3.77,2.21-4.7a10.76,10.76,0,0,1,4.46-1.72c1.56-.22,3.31-.38,5.26-.47l2.65,0v-.66a5.25,5.25,0,0,0-1.42-4,5.72,5.72,0,0,0-4.11-1.35,9,9,0,0,0-3.4.66A8.26,8.26,0,0,0,224,17.14l-1.68-2A10,10,0,0,1,225.74,13a13,13,0,0,1,4.68-.82,8.52,8.52,0,0,1,5.79,2,6.94,6.94,0,0,1,2.25,5.56v9.06a25,25,0,0,0,.36,4.64h-2.7a18.14,18.14,0,0,1-.26-2.17c0-.59-.05-1-.05-1.19h-.09a9.08,9.08,0,0,1-3.2,3A9.24,9.24,0,0,1,228.21,33.93Zm.8-2.48a6.21,6.21,0,0,0,4.84-2,7,7,0,0,0,1.79-4.86V23.06h-.89a26.46,26.46,0,0,0-7.64.91c-2,.6-3,1.79-3,3.55a3.33,3.33,0,0,0,1.41,3A6,6,0,0,0,229,31.45Z"/><path d="M254,44a14.09,14.09,0,0,1-5.46-1.1,13.34,13.34,0,0,1-4.48-3l2.16-2.3a10,10,0,0,0,3.45,2.72,9.87,9.87,0,0,0,4.46,1.08q4.2,0,6.14-2.25a8.68,8.68,0,0,0,1.95-5.88V29.33h-.09a8.06,8.06,0,0,1-3.34,3,9.79,9.79,0,0,1-4.48,1.11,10.5,10.5,0,0,1-7.76-2.94,10.28,10.28,0,0,1-2.93-7.58,10.48,10.48,0,0,1,3-7.59,10.23,10.23,0,0,1,7.69-3.1,9.71,9.71,0,0,1,4.48,1.09,8.15,8.15,0,0,1,3.34,3h.09V12.72h3v20.5a10.7,10.7,0,0,1-2.89,7.89C260.37,43,257.59,44,254,44Zm.62-13.16a7.73,7.73,0,0,0,5.72-2.26,7.85,7.85,0,0,0,2.23-5.78,7.94,7.94,0,0,0-2.3-5.7,7.53,7.53,0,0,0-5.65-2.39A7.35,7.35,0,0,0,248.91,17a8.18,8.18,0,0,0-2.14,5.77,8.12,8.12,0,0,0,2.12,5.74A7.38,7.38,0,0,0,254.59,30.84Z"/><path d="M273.45,6.89A2,2,0,0,1,272,6.27a2,2,0,0,1-.64-1.5,2,2,0,0,1,.64-1.5,2.08,2.08,0,0,1,3,0,2,2,0,0,1,.64,1.5,2,2,0,0,1-.64,1.5A2,2,0,0,1,273.45,6.89ZM272,33.4V12.72h3V33.4Z"/><path d="M291.39,33.93a10.83,10.83,0,0,1-8-3.07,10.6,10.6,0,0,1-3.07-7.8,10.6,10.6,0,0,1,3.07-7.8,10.83,10.83,0,0,1,8-3.07,10.51,10.51,0,0,1,4.3.93,8.27,8.27,0,0,1,3.38,2.65l-2.34,1.68a5.7,5.7,0,0,0-2.19-2,6.48,6.48,0,0,0-3.11-.77,7.44,7.44,0,0,0-5.72,2.36,8.49,8.49,0,0,0-2.19,6,8.39,8.39,0,0,0,2.17,6,7.36,7.36,0,0,0,5.7,2.35,6.52,6.52,0,0,0,3.53-.84A7.61,7.61,0,0,0,297,28.67l2.25,1.68a8.58,8.58,0,0,1-3.91,2.89A12.7,12.7,0,0,1,291.39,33.93Z"/><path d="M303,33.4V2.12h9.32A13,13,0,0,1,319.48,4q2.92,1.85,2.92,6.14a6.49,6.49,0,0,1-1.53,4.3,7,7,0,0,1-4,2.41v.09a8,8,0,0,1,5.1,2.43,7.51,7.51,0,0,1,2,5.39A7.44,7.44,0,0,1,320.76,31a13.85,13.85,0,0,1-8.48,2.37Zm3.18-17.58h6.4a8.16,8.16,0,0,0,4.66-1.33,4.65,4.65,0,0,0,2-4.15,4.58,4.58,0,0,0-2.08-4.16,10,10,0,0,0-5.43-1.32h-5.52Zm0,14.84h5.92a11.59,11.59,0,0,0,6.18-1.5,5,5,0,0,0,2.43-4.6A5.35,5.35,0,0,0,318.64,20a9.84,9.84,0,0,0-6-1.55h-6.49Z"/><path d="M339.32,33.93a10.75,10.75,0,0,1-7.89-3.09,10.55,10.55,0,0,1-3.11-7.78,10.51,10.51,0,0,1,3.11-7.77,11.64,11.64,0,0,1,15.82,0,10.51,10.51,0,0,1,3.11,7.77,10.55,10.55,0,0,1-3.11,7.78A10.79,10.79,0,0,1,339.32,33.93Zm0-2.56A7.35,7.35,0,0,0,345,29a8.38,8.38,0,0,0,2.19-5.94,8.47,8.47,0,0,0-2.19-6,7.91,7.91,0,0,0-11.33,0,8.53,8.53,0,0,0-2.16,6A8.38,8.38,0,0,0,333.69,29,7.3,7.3,0,0,0,339.32,31.37Z"/><path d="M365.21,33.93a10.73,10.73,0,0,1-7.89-3.09,10.52,10.52,0,0,1-3.12-7.78,10.48,10.48,0,0,1,3.12-7.77,11.63,11.63,0,0,1,15.81,0,10.48,10.48,0,0,1,3.12,7.77,10.52,10.52,0,0,1-3.12,7.78A10.77,10.77,0,0,1,365.21,33.93Zm0-2.56A7.37,7.37,0,0,0,370.88,29a8.38,8.38,0,0,0,2.19-5.94,8.47,8.47,0,0,0-2.19-6,7.91,7.91,0,0,0-11.33,0,8.53,8.53,0,0,0-2.16,6A8.38,8.38,0,0,0,359.57,29,7.33,7.33,0,0,0,365.21,31.37Z"/><path d="M381.68,33.4V0h3V22h.13l9.54-9.32h4.33l-10.43,9.46L399.75,33.4h-4.42L384.82,22.53h-.13V33.4Z"/><path d="M418.3,33.4V6.05l-5.65,4.82-1.94-2.21,8-6.54h2.82V33.4Z"/><path d="M446.36,33.4V25.84H432V22.75L445.3,2.12h4.15V23.06H454v2.78h-4.59V33.4Zm-11-10.34h11V5.7h-.09Z"/><polygon points="17.99 2.09 23.57 2.09 23.57 33.4 17.99 33.4 17.99 20.36 5.58 20.36 5.58 33.4 0 33.4 0 2.09 5.58 2.09 5.58 14.78 17.99 14.78 17.99 2.09"/><polygon points="88.74 21.63 75.2 2.09 70.75 2.09 70.75 33.4 76.33 33.4 76.33 13.76 89.94 33.4 94.32 33.4 94.32 2.09 88.74 2.09 88.74 21.63"/><path d="M117.91,1.66A16.06,16.06,0,1,0,134,17.72,16.06,16.06,0,0,0,117.91,1.66Zm0,26.55A10.49,10.49,0,1,1,128.4,17.72,10.49,10.49,0,0,1,117.91,28.21Z"/><path d="M156.43,22a10.19,10.19,0,0,0-3.07-19.89H141.51V33.4h5.57V19.46L158.7,33.4H166Zm-9.35-5.09V7.66h6.21a4.62,4.62,0,0,1,0,9.23Z"/><path d="M47.16,1.66A16.06,16.06,0,1,0,63.22,17.72,16.07,16.07,0,0,0,47.16,1.66Zm0,26.55A10.49,10.49,0,1,1,57.65,17.72,10.49,10.49,0,0,1,47.16,28.21Z"/></g></g></svg>